<svg xmlns="http://www.w3.org/2000/svg" width="860" height="360" viewBox="0 0 860 360" font-family='-apple-system, BlinkMacSystemFont, "Segoe UI", Roboto, system-ui, sans-serif'>
<style>
 .title{font-size:16px;font-weight:700;fill:#1c1917} .sub{font-size:12px;fill:#78716c}
 .task{font-size:13.5px;font-weight:600;fill:#1c1917} .side{font-size:12px;fill:#78716c}
 .val{font-size:12px;fill:#78716c;font-variant-numeric:tabular-nums} .ax{font-size:11px;fill:#a8a29e;font-variant-numeric:tabular-nums}
 .grid{stroke:#e7e5e4;stroke-width:1} .leg{font-size:12px;fill:#78716c} .end{font-weight:700;font-size:13px}
</style>
<rect width="860" height="360" rx="10" fill="#fafaf9"/><text x="28" y="34" class="title">Cost of running the same task five times</text>
<text x="28" y="54" class="sub">Running total at Claude Sonnet 4.6 prices. Lower is better.</text>
<rect x="28" y="70" width="12" height="12" rx="3" fill="#c2660c"/><text x="46" y="80" class="leg">Playwright MCP</text>
<rect x="168" y="70" width="12" height="12" rx="3" fill="#15803d"/><text x="186" y="80" class="leg">web-tester</text>
<line x1="66" y1="304.0" x2="664" y2="304.0" class="grid"/><text x="54" y="308.0" class="ax" text-anchor="end">$0.00</text><line x1="66" y1="253.0" x2="664" y2="253.0" class="grid"/><text x="54" y="257.0" class="ax" text-anchor="end">$0.02</text><line x1="66" y1="202.0" x2="664" y2="202.0" class="grid"/><text x="54" y="206.0" class="ax" text-anchor="end">$0.04</text><line x1="66" y1="151.0" x2="664" y2="151.0" class="grid"/><text x="54" y="155.0" class="ax" text-anchor="end">$0.06</text><line x1="66" y1="100.0" x2="664" y2="100.0" class="grid"/><text x="54" y="104.0" class="ax" text-anchor="end">$0.08</text>
<polyline points="66.0,271.5 215.5,239.1 365.0,206.6 514.5,174.2 664.0,141.7" fill="none" stroke="#c2660c" stroke-width="2.5" stroke-linejoin="round"/>
<polyline points="66.0,295.9 215.5,290.4 365.0,285.0 514.5,279.5 664.0,274.0" fill="none" stroke="#15803d" stroke-width="2.5" stroke-linejoin="round"/>
<circle cx="66.0" cy="271.5" r="3.5" fill="#c2660c"/><circle cx="215.5" cy="239.1" r="3.5" fill="#c2660c"/><circle cx="365.0" cy="206.6" r="3.5" fill="#c2660c"/><circle cx="514.5" cy="174.2" r="3.5" fill="#c2660c"/><circle cx="664.0" cy="141.7" r="3.5" fill="#c2660c"/>
<circle cx="66.0" cy="295.9" r="3.5" fill="#15803d"/><circle cx="215.5" cy="290.4" r="3.5" fill="#15803d"/><circle cx="365.0" cy="285.0" r="3.5" fill="#15803d"/><circle cx="514.5" cy="279.5" r="3.5" fill="#15803d"/><circle cx="664.0" cy="274.0" r="3.5" fill="#15803d"/>
<text x="66.0" y="332" class="ax" text-anchor="middle">Run 1</text><text x="215.5" y="332" class="ax" text-anchor="middle">Run 2</text><text x="365.0" y="332" class="ax" text-anchor="middle">Run 3</text><text x="514.5" y="332" class="ax" text-anchor="middle">Run 4</text><text x="664.0" y="332" class="ax" text-anchor="middle">Run 5</text>
<text x="676.0" y="145.7" class="end" fill="#c2660c">$0.064</text>
<text x="676.0" y="161.7" class="leg" fill="#c2660c">Playwright MCP, 30 round-trips</text>
<text x="676.0" y="266.0" class="end" fill="#15803d">$0.012</text>
<text x="676.0" y="282.0" class="leg" fill="#15803d">web-tester, 5 round-trips</text></svg>